<?xml version="1.0" encoding="UTF-8" standalone="no"?>
<!DOCTYPE svg PUBLIC "-//W3C//DTD SVG 1.1//EN" "http://www.w3.org/Graphics/SVG/1.1/DTD/svg11.dtd">
<svg width="100%" height="100%" viewBox="0 0 16 16" version="1.1" xmlns="http://www.w3.org/2000/svg" xmlns:xlink="http://www.w3.org/1999/xlink" xml:space="preserve" xmlns:serif="http://www.serif.com/" style="fill-rule:evenodd;clip-rule:evenodd;stroke-linejoin:round;stroke-miterlimit:2;">
    <g transform="matrix(0.163265,0,0,0.163265,0,0)">
        <path d="M98,9.8C98,4.391 93.609,0 88.2,0L9.8,0C4.391,0 0,4.391 0,9.8L0,88.2C0,93.609 4.391,98 9.8,98L88.2,98C93.609,98 98,93.609 98,88.2L98,9.8Z" fill="#27272a"/>
    </g>
    <g transform="matrix(4,0,0,4,-7,-7)">
        <path d="M3,2.175C3,2.078 2.922,2 2.825,2L2.175,2C2.078,2 2,2.078 2,2.175L2,2.825C2,2.922 2.078,3 2.175,3L2.825,3C2.922,3 3,2.922 3,2.825L3,2.175Z" fill="#3b82f6"/>
    </g>
    <g transform="matrix(4,0,0,4,-7,-2)">
        <path d="M3,2.175C3,2.078 2.922,2 2.825,2L2.175,2C2.078,2 2,2.078 2,2.175L2,2.825C2,2.922 2.078,3 2.175,3L2.825,3C2.922,3 3,2.922 3,2.825L3,2.175Z" fill="#52525b"/>
    </g>
    <g transform="matrix(4,0,0,1.7,-2,2.6)">
        <path d="M3,2.353C3,2.158 2.933,2 2.85,2L2.15,2C2.067,2 2,2.158 2,2.353L2,2.647C2,2.842 2.067,3 2.15,3L2.85,3C2.933,3 3,2.842 3,2.647L3,2.353Z" fill="#3b82f6"/>
    </g>
    <g transform="matrix(4,0,0,1.7,-2,4.9)">
        <path d="M3,2.353C3,2.158 2.933,2 2.85,2L2.15,2C2.067,2 2,2.158 2,2.353L2,2.647C2,2.842 2.067,3 2.15,3L2.85,3C2.933,3 3,2.842 3,2.647L3,2.353Z" fill="#52525b"/>
    </g>
    <g transform="matrix(4,0,0,4,3,-2)">
        <path d="M3,2.175C3,2.078 2.922,2 2.825,2L2.175,2C2.078,2 2,2.078 2,2.175L2,2.825C2,2.922 2.078,3 2.175,3L2.825,3C2.922,3 3,2.922 3,2.825L3,2.175Z" fill="#52525b"/>
    </g>
    <g transform="matrix(4,0,0,4,-7,3)">
        <path d="M3,2.175C3,2.078 2.922,2 2.825,2L2.175,2C2.078,2 2,2.078 2,2.175L2,2.825C2,2.922 2.078,3 2.175,3L2.825,3C2.922,3 3,2.922 3,2.825L3,2.175Z" fill="#52525b"/>
    </g>
    <g transform="matrix(4,0,0,4,-2,3)">
        <path d="M3,2.175C3,2.078 2.922,2 2.825,2L2.175,2C2.078,2 2,2.078 2,2.175L2,2.825C2,2.922 2.078,3 2.175,3L2.825,3C2.922,3 3,2.922 3,2.825L3,2.175Z" fill="#3b82f6"/>
    </g>
    <g transform="matrix(4,0,0,4,-2,-7)">
        <path d="M3,2.175C3,2.078 2.922,2 2.825,2L2.175,2C2.078,2 2,2.078 2,2.175L2,2.825C2,2.922 2.078,3 2.175,3L2.825,3C2.922,3 3,2.922 3,2.825L3,2.175Z" fill="#52525b"/>
    </g>
</svg>