<?xml version="1.0" encoding="UTF-8" standalone="no"?>
<!DOCTYPE svg PUBLIC "-//W3C//DTD SVG 1.1//EN" "http://www.w3.org/Graphics/SVG/1.1/DTD/svg11.dtd">
<svg width="100%" height="100%" viewBox="0 0 467 124" version="1.1" xmlns="http://www.w3.org/2000/svg" xmlns:xlink="http://www.w3.org/1999/xlink" xml:space="preserve" xmlns:serif="http://www.serif.com/" style="fill-rule:evenodd;clip-rule:evenodd;stroke-linejoin:round;stroke-miterlimit:2;">
    <g id="Artboard1" transform="matrix(1,0,0,1,-2892.32,-3748.87)">
        <rect x="2892.32" y="3748.87" width="466.166" height="123.997" style="fill:none;"/>
        <g id="N" transform="matrix(0.999124,0.0418529,-0.0418529,0.999124,168.78,-169.922)">
            <path d="M2913.69,3836.37C2914.84,3838.71 2915.84,3841.14 2916.91,3843.34C2925.16,3860.17 2933.54,3876.67 2942.9,3892.92C2944.98,3896.54 2946.84,3900.27 2948.79,3903.96C2948.95,3904.26 2950.56,3907.44 2950.99,3908.03C2953.97,3912.15 2958.05,3910.77 2959.05,3910.35C2960.45,3909.76 2962.11,3908.5 2963.18,3906.18C2964.18,3904.01 2964.79,3899.38 2964.96,3898.14C2966.01,3890.54 2966.01,3882.59 2966.15,3874.92C2966.3,3867.31 2965.82,3859.67 2965.17,3852.1C2964.22,3841.04 2963.43,3829.94 2962.66,3818.87C2962.4,3815.19 2959.22,3812.42 2955.55,3812.68C2951.87,3812.93 2949.1,3816.12 2949.36,3819.79C2950.13,3830.93 2950.93,3842.11 2951.89,3853.24C2952.5,3860.35 2952.96,3867.52 2952.82,3874.66C2952.77,3877.46 2952.74,3880.31 2952.67,3883.15C2944.17,3868.17 2936.47,3852.96 2928.88,3837.47C2925.84,3831.25 2922.76,3823.84 2917.51,3819.09C2916.37,3818.06 2913.26,3815.69 2910.7,3815C2907.68,3814.18 2904.97,3814.81 2902.88,3816.59C2902.14,3817.21 2901.28,3818.2 2900.75,3819.75C2900.3,3821.09 2900.31,3825.6 2900.31,3826.59C2900.32,3831.85 2900.33,3837.12 2900.44,3842.39C2900.66,3852.64 2902.32,3862.91 2902.27,3873.15C2902.22,3884.02 2901.51,3894.86 2901.51,3905.73C2901.51,3909.41 2904.5,3912.4 2908.18,3912.4C2911.86,3912.4 2914.84,3909.41 2914.84,3905.73C2914.84,3894.88 2915.55,3884.06 2915.61,3873.22C2915.66,3862.85 2913.99,3852.47 2913.77,3842.1C2913.73,3840.19 2913.7,3838.28 2913.69,3836.37Z" style="fill:currentColor"/>
        </g>
        <g id="a" transform="matrix(0.999124,0.0418529,-0.0418529,0.999124,170.054,-171.16)">
            <path d="M3020.25,3896.78C3020.48,3898.34 3020.69,3899.9 3020.9,3901.46C3021.4,3905.1 3024.76,3907.66 3028.4,3907.17C3032.05,3906.67 3034.61,3903.31 3034.11,3899.66C3033.41,3894.46 3032.68,3889.28 3031.71,3884.12C3031.1,3880.86 3030.86,3877.55 3030.37,3874.27C3029.56,3868.91 3028.8,3861.52 3025.39,3857.05C3023.45,3854.52 3021.29,3854.36 3020.15,3854.32C3019.6,3854.31 3019.05,3854.34 3018.51,3854.44C3017.64,3851.53 3014.86,3849.49 3011.7,3849.69C3001.36,3850.34 2990.07,3854.86 2983.69,3863.29C2978.65,3869.94 2976.17,3880.43 2977.62,3889.58C2978.7,3896.34 2981.86,3902.3 2987.07,3905.99C2995.92,3912.26 3004.97,3910.82 3012.22,3905.54C3015.35,3903.26 3018.09,3900.2 3020.25,3896.78ZM3013.3,3862.91C3013.05,3862.95 3012.8,3862.98 3012.54,3863C3005.88,3863.42 2998.42,3865.92 2994.31,3871.34C2991.23,3875.41 2989.9,3881.88 2990.79,3887.48C2991.28,3890.55 2992.41,3893.43 2994.77,3895.11C2998.15,3897.5 3001.6,3896.78 3004.38,3894.76C3008.09,3892.06 3010.86,3887.43 3011.73,3883.02C3012.66,3878.31 3012.89,3873.36 3013.03,3868.57C3013.08,3866.84 3013.24,3865.12 3013.32,3863.4L3013.3,3863.09L3013.3,3862.91Z" style="fill:currentColor"/>
        </g>
        <g id="c" transform="matrix(0.999124,0.0418529,-0.0418529,0.999124,170.054,-171.16)">
            <path d="M3065.72,3821.97C3062.9,3819.95 3060.22,3817.75 3057.51,3815.59C3054.63,3813.3 3050.43,3813.78 3048.14,3816.65C3045.85,3819.53 3046.33,3823.73 3049.21,3826.02C3052.38,3828.54 3055.51,3831.11 3058.83,3833.44C3061.48,3835.3 3064.54,3837.05 3068.03,3836.36C3071.52,3835.66 3074.42,3833.34 3076.56,3829.96C3078.26,3827.26 3079.4,3823.72 3080.58,3821.55C3082.34,3818.32 3081.14,3814.26 3077.91,3812.51C3074.68,3810.75 3070.63,3811.95 3068.87,3815.18C3068.06,3816.67 3067.26,3818.79 3066.31,3820.86C3066.16,3821.19 3065.95,3821.59 3065.72,3821.97Z" style="fill:currentColor"/>
            <path d="M3087.98,3855.93C3085.4,3852.99 3082.44,3850.7 3078.94,3848.94C3075.34,3847.12 3071.19,3845.79 3067.12,3845.64C3058.48,3845.33 3052.49,3850.03 3048.83,3857.12C3044.47,3865.58 3043.88,3877.78 3045.41,3885.13C3046.11,3888.5 3047.05,3892.37 3048.93,3895.32C3058.6,3910.42 3081.4,3912.8 3089.53,3893.81C3090.98,3890.42 3089.41,3886.5 3086.03,3885.05C3082.65,3883.6 3078.72,3885.17 3077.28,3888.56C3073.85,3896.56 3064.24,3894.49 3060.16,3888.13C3059.12,3886.5 3058.85,3884.28 3058.46,3882.41C3057.58,3878.16 3057.7,3871.55 3059.51,3866.06C3060.74,3862.35 3062.59,3858.82 3066.63,3858.97C3068.82,3859.05 3071.01,3859.87 3072.95,3860.85C3074.88,3861.82 3076.53,3863.09 3077.95,3864.72C3080.38,3867.49 3084.59,3867.76 3087.36,3865.34C3090.13,3862.91 3090.4,3858.7 3087.98,3855.93Z" style="fill:currentColor"/>
        </g>
        <g id="i" transform="matrix(0.999124,0.0418529,-0.0418529,0.999124,171.007,-167.63)">
            <path d="M3111.08,3805.35C3107.19,3809.74 3103.68,3815.54 3101.81,3821.12C3100.64,3824.6 3102.52,3828.39 3106,3829.56C3109.49,3830.73 3113.28,3828.85 3114.45,3825.36C3115.77,3821.41 3118.29,3817.31 3121.05,3814.2C3123.49,3811.45 3123.24,3807.24 3120.49,3804.79C3117.74,3802.35 3113.52,3802.6 3111.08,3805.35Z" style="fill:currentColor"/>
            <path d="M3103.71,3849.87C3103.71,3865.3 3104.53,3880.27 3106.13,3895.6C3106.52,3899.26 3109.8,3901.91 3113.46,3901.53C3117.12,3901.15 3119.78,3897.87 3119.39,3894.21C3117.84,3879.35 3117.04,3864.84 3117.04,3849.87C3117.04,3846.19 3114.05,3843.21 3110.37,3843.21C3106.69,3843.21 3103.71,3846.19 3103.71,3849.87Z" style="fill:currentColor"/>
        </g>
        <g id="t" transform="matrix(0.999455,0.0330168,-0.0330168,0.999455,132.549,-141.757)">
            <path d="M3143.57,3806.8C3143.57,3818.46 3144.67,3830.06 3145.03,3841.72C3145.39,3853.68 3144.99,3865.61 3147.06,3877.45C3148.95,3888.22 3156.58,3900.27 3169.03,3900.61C3172.21,3900.7 3175.52,3899.66 3178.48,3898.6C3181.94,3897.36 3183.75,3893.54 3182.51,3890.08C3181.27,3886.61 3177.45,3884.81 3173.98,3886.05C3172.53,3886.57 3170.96,3887.32 3169.39,3887.28C3166.96,3887.21 3165.17,3885.77 3163.81,3883.97C3161.87,3881.43 3160.72,3878.13 3160.2,3875.14C3158.23,3863.93 3158.7,3852.64 3158.35,3841.32C3158.01,3829.8 3156.9,3818.33 3156.9,3806.8C3156.9,3803.12 3153.91,3800.13 3150.23,3800.13C3146.55,3800.13 3143.57,3803.12 3143.57,3806.8Z" style="fill:currentColor"/>
            <path d="M3136.28,3841.7C3147,3840.35 3157.58,3842.62 3168.28,3841.56C3171.94,3841.19 3174.61,3837.92 3174.25,3834.26C3173.88,3830.6 3170.62,3827.92 3166.95,3828.29C3156.14,3829.37 3145.45,3827.11 3134.61,3828.47C3130.96,3828.93 3128.37,3832.27 3128.83,3835.92C3129.29,3839.57 3132.63,3842.16 3136.28,3841.7Z" style="fill:currentColor"/>
        </g>
        <g id="a1" serif:id="a" transform="matrix(0.999124,0.0418529,-0.0418529,0.999124,165.946,-169.267)">
            <path d="M3220.01,3804.04C3217.38,3808.57 3215.06,3813.11 3212.97,3817.91C3211.51,3821.29 3213.05,3825.22 3216.43,3826.68C3219.8,3828.15 3223.73,3826.6 3225.2,3823.23C3227.08,3818.9 3229.17,3814.82 3231.54,3810.74C3233.39,3807.56 3232.31,3803.48 3229.13,3801.63C3225.95,3799.78 3221.86,3800.86 3220.01,3804.04Z" style="fill:currentColor"/>
            <path d="M3231.61,3883.1C3232.3,3886.12 3233.14,3889.12 3233.89,3892.13C3234.78,3895.7 3238.4,3897.88 3241.97,3896.99C3245.54,3896.1 3247.72,3892.48 3246.83,3888.91C3245.74,3884.52 3244.37,3880.16 3243.76,3875.67C3243.39,3872.99 3243.11,3870.26 3242.84,3867.56C3242.43,3863.51 3241.85,3858.98 3239.88,3855.35C3239.59,3854.81 3237.49,3851.83 3236.17,3850.9C3235.54,3850.45 3234.91,3850.13 3234.29,3849.9C3234.69,3847.28 3233.49,3844.56 3231.05,3843.14C3228.01,3841.38 3224.28,3840.52 3220.83,3840.06C3213.77,3839.12 3205.33,3840.47 3199.74,3845.27C3196.36,3848.18 3194.08,3852.67 3192.84,3856.86C3189.79,3867.11 3190.88,3883.16 3198.74,3891.4C3200.55,3893.31 3202.47,3895.02 3204.73,3896.39C3212.36,3901.03 3218.72,3899.31 3223.84,3894.77C3227.07,3891.9 3229.69,3887.45 3231.61,3883.1ZM3225.34,3855.14C3225,3855.02 3224.67,3854.86 3224.35,3854.67C3222.79,3853.77 3220.83,3853.51 3219.06,3853.28C3215.54,3852.81 3211.22,3852.99 3208.43,3855.38C3206.93,3856.67 3206.17,3858.81 3205.62,3860.67C3204.41,3864.72 3204.07,3870.18 3205.1,3875.06C3205.68,3877.8 3206.66,3880.38 3208.39,3882.21C3209.39,3883.26 3210.42,3884.24 3211.66,3885C3212.36,3885.42 3212.95,3885.72 3213.53,3885.64C3214.68,3885.5 3215.46,3884.44 3216.27,3883.4C3219.01,3879.89 3220.73,3874.81 3221.6,3871.48C3222.06,3869.74 3222.43,3867.94 3222.78,3866.18C3223.36,3863.21 3224,3860.22 3224.78,3857.3C3224.76,3857.38 3224.7,3857.63 3224.7,3857.63C3224.7,3857.63 3224.99,3856.38 3225.34,3855.14Z" style="fill:currentColor"/>
        </g>
        <g id="n" transform="matrix(0.999124,0.0418529,-0.0418529,0.999124,165.936,-168.64)">
            <path d="M3273.62,3888.51C3273.08,3879.87 3272.99,3871.19 3272.56,3862.55C3272.21,3855.45 3270.42,3848.49 3269.83,3841.42C3269.52,3837.76 3266.3,3835.03 3262.63,3835.33C3258.97,3835.64 3256.24,3838.86 3256.54,3842.53C3257.12,3849.45 3258.9,3856.26 3259.25,3863.21C3259.68,3871.91 3259.77,3880.65 3260.31,3889.34C3260.54,3893.01 3263.71,3895.81 3267.38,3895.58C3271.05,3895.35 3273.85,3892.18 3273.62,3888.51Z" style="fill:currentColor"/>
            <path d="M3271.97,3858.9C3272.51,3854.66 3276.42,3850.68 3280.75,3848.47C3284.28,3846.66 3288.44,3845.84 3291.16,3848.94C3293.88,3852.04 3295.01,3856.06 3295.61,3860.2C3296.36,3865.33 3296.24,3870.7 3296.27,3875.47C3296.29,3879.09 3296.72,3882.95 3296.29,3886.55C3295.84,3890.2 3298.45,3893.53 3302.1,3893.97C3305.76,3894.41 3309.08,3891.81 3309.52,3888.15C3310.02,3884.01 3309.63,3879.55 3309.6,3875.38C3309.53,3863.8 3309.37,3849.48 3301.18,3840.15C3294.21,3832.2 3283.76,3831.96 3274.69,3836.6C3266.41,3840.82 3259.76,3849.12 3258.74,3857.23C3258.28,3860.88 3260.87,3864.22 3264.53,3864.68C3268.18,3865.14 3271.51,3862.55 3271.97,3858.9Z" style="fill:currentColor"/>
        </g>
        <g id="i1" serif:id="i" transform="matrix(0.999124,0.0418529,-0.0418529,0.999124,167.183,-167.994)">
            <path d="M3332.39,3798.39C3329.96,3802.58 3327.46,3806.67 3325.35,3811.05C3323.75,3814.36 3325.14,3818.35 3328.45,3819.95C3331.76,3821.55 3335.75,3820.16 3337.35,3816.85C3339.32,3812.78 3341.66,3808.98 3343.92,3805.08C3345.77,3801.9 3344.69,3797.82 3341.51,3795.97C3338.32,3794.12 3334.24,3795.2 3332.39,3798.39Z" style="fill:currentColor"/>
            <path d="M3320.53,3840.02C3323.35,3854.84 3322.26,3870.74 3323.06,3885.75C3323.25,3889.42 3326.39,3892.25 3330.07,3892.05C3333.74,3891.86 3336.57,3888.71 3336.37,3885.04C3335.54,3869.44 3336.55,3852.92 3333.62,3837.53C3332.94,3833.92 3329.45,3831.54 3325.83,3832.23C3322.22,3832.91 3319.84,3836.41 3320.53,3840.02Z" style="fill:currentColor"/>
        </g>
    </g>
</svg>
