<?xml version="1.0" encoding="UTF-8" standalone="no"?>
<svg xmlns:dc="http://purl.org/dc/elements/1.1/" xmlns:cc="http://creativecommons.org/ns#" xmlns:rdf="http://www.w3.org/1999/02/22-rdf-syntax-ns#" xmlns:svg="http://www.w3.org/2000/svg" xmlns="http://www.w3.org/2000/svg" xmlns:sodipodi="http://sodipodi.sourceforge.net/DTD/sodipodi-0.dtd" xmlns:inkscape="http://www.inkscape.org/namespaces/inkscape" sodipodi:docname="stylized uwu.svg" inkscape:version="1.0 (4035a4fb49, 2020-05-01)" id="svg8" version="1.1" viewBox="0 0 54.427349 20.788046">
  <defs id="defs2"/>
  <sodipodi:namedview inkscape:window-maximized="0" inkscape:window-y="0" inkscape:window-x="208" inkscape:window-height="1040" inkscape:window-width="1375" showgrid="false" inkscape:document-rotation="0" inkscape:current-layer="layer1" inkscape:document-units="mm" inkscape:cy="150.41779" inkscape:cx="141.74807" inkscape:zoom="1.979899" inkscape:pageshadow="2" inkscape:pageopacity="0.0" borderopacity="1.0" bordercolor="#666666" pagecolor="currentColor" id="base"/>
  <metadata id="metadata5">
    <rdf:RDF>
      <cc:Work rdf:about="">
        <dc:format>image/svg+xml</dc:format>
        <dc:type rdf:resource="http://purl.org/dc/dcmitype/StillImage"/>
        <dc:title/>
      </cc:Work>
    </rdf:RDF>
  </metadata>
  <g transform="translate(22.822768,-42.071817)" id="layer1" inkscape:groupmode="layer" inkscape:label="Layer 1">
    <path id="path857" d="m 16.892689,54.156964 c -2.034272,-0.338392 -4.286919,-2.666977 -5.295005,-5.473502 -0.57347,-1.596548 -0.791057,-4.010167 -0.449976,-4.991451 0.302345,-0.869844 1.078604,-1.154033 1.418329,-0.519251 0.05236,0.09783 0.126721,0.79228 0.165256,1.543226 0.1311,2.554801 0.698649,4.248578 1.928838,5.756372 1.893414,2.320685 3.833996,2.362022 5.54576,0.118135 1.377177,-1.80529 1.869798,-3.689837 1.65356,-6.325769 -0.05556,-0.677259 -0.07335,-1.341036 -0.03953,-1.475061 0.03381,-0.134026 0.175597,-0.357799 0.315073,-0.497274 0.216125,-0.216125 0.298345,-0.24633 0.556498,-0.204437 0.166599,0.02703 0.379912,0.117458 0.474031,0.20094 0.622619,0.552258 0.910701,2.817337 0.61112,4.804995 -0.174382,1.156981 -0.341296,1.734687 -0.763337,2.64197 -1.144608,2.460623 -2.862161,4.069312 -4.693573,4.396078 -0.718719,0.128236 -0.798222,0.129631 -1.427039,0.02503 z" style="fill:currentColor;stroke-width:0.0846667"/>
    <path id="path855" d="m -8.9882729,54.505549 c -1.0643191,-0.160075 -1.8798641,-0.537282 -2.8483931,-1.317441 -1.394542,-1.123315 -2.565498,-3.371726 -2.860476,-5.492537 -0.183155,-1.316837 -0.02779,-3.383844 0.348827,-4.640883 0.176405,-0.588785 0.732741,-0.838644 1.084375,-0.48701 0.199675,0.199675 0.217409,0.580483 0.07164,1.538253 -0.207732,1.364856 0.189939,3.733664 0.845783,5.038073 1.138968,2.265296 2.8454501,3.47554 4.4553691,3.15977 0.850247,-0.166768 1.373025,-0.472826 2.162545,-1.266052 0.574848,-0.577546 0.789993,-0.867863 1.069151,-1.442711 0.661663,-1.362508 0.970735,-2.484564 1.209064,-4.389381 0.133309,-1.065453 0.56957,-1.600632 1.205663,-1.479035 0.283409,0.05418 0.6976054,0.489407 0.8227673,0.86455 0.43918211,1.316347 -0.5142553,4.966671 -1.8032503,6.90391 -0.817572,1.228736 -2.046434,2.242606 -3.281697,2.707558 -0.473697,0.178299 -1.66668,0.408065 -1.958324,0.377168 -0.05484,-0.0058 -0.290207,-0.03921 -0.52304,-0.07423 z" style="fill:currentColor;stroke-width:0.0846667"/>
    <path id="path853" d="m 1.755613,58.957603 c -1.12496849,-0.352101 -2.09465999,-1.658795 -2.40623249,-3.242485 -0.057446,-0.291994 -0.087732,-0.896028 -0.068693,-1.370045 0.030195,-0.75178 0.056977,-0.872203 0.2364706,-1.063264 0.3317739,-0.353158 0.7620694,-0.251524 0.9259959,0.218715 0.051465,0.147633 0.093572,0.483332 0.093572,0.745999 0,0.957368 0.48040029,2.178888 1.10097389,2.799462 0.6213221,0.621322 0.9973826,0.523933 1.5048492,-0.389713 0.1526193,-0.274777 0.4092355,-0.62342 0.5702571,-0.774761 0.2533065,-0.23808 0.3524724,-0.275167 0.7357516,-0.275167 h 0.4429853 l 0.6505761,0.677333 c 0.4015062,0.41802 0.7175203,0.677334 0.8254356,0.677334 0.2584052,0 0.758162,-0.545726 1.0341237,-1.129246 0.2449296,-0.517905 0.3404997,-0.895797 0.4925474,-1.947577 0.1009329,-0.698195 0.2453996,-0.940459 0.6380963,-1.070061 0.3772848,-0.124515 0.6815531,0.0071 0.9547427,0.412904 0.2478735,0.368222 0.2573113,1.050552 0.027773,2.007933 -0.2834978,1.182443 -0.7164416,1.994507 -1.4544792,2.728143 -0.5650061,0.561637 -0.9405594,0.728541 -1.6392999,0.728541 -0.6823184,0 -1.0897014,-0.173432 -1.5617756,-0.664885 -0.1604764,-0.167064 -0.3319264,-0.302306 -0.381,-0.300539 -0.049074,0.0018 -0.1901859,0.14932 -0.3135833,0.327894 -0.5817175,0.841832 -1.5026182,1.187199 -2.4090869,0.903485 z" style="fill:currentColor;stroke-width:0.0846667"/>
    <path id="path851" d="m 24.043077,62.674359 c -1.516136,-0.384291 -2.747237,-1.597158 -3.309063,-3.260052 -0.204871,-0.60638 -0.242799,-0.855452 -0.244655,-1.606633 -0.0045,-1.832823 0.685555,-3.262249 2.109401,-4.369387 0.635492,-0.494138 1.215796,-0.787021 2.327544,-1.174725 2.02032,-0.704553 3.460411,-0.421419 4.928226,0.968932 0.811375,0.768554 1.246209,1.449869 1.556035,2.43805 0.199965,0.637784 0.215556,0.790245 0.177488,1.735666 -0.04766,1.183573 -0.192162,1.687774 -0.757867,2.644316 -0.735408,1.243494 -1.890018,2.110678 -3.327128,2.498881 -0.896179,0.242082 -2.735768,0.308516 -3.459981,0.124952 z" style="fill:#ff6187;fill-opacity:1;stroke-width:0.0846667"/>
    <path id="path847" d="m -18.894273,62.767769 c -2.050609,-0.470944 -3.292164,-1.619231 -3.769745,-3.486554 -0.196833,-0.769608 -0.209477,-1.387443 -0.04434,-2.166611 0.449155,-2.119276 1.82346,-3.729789 3.722782,-4.362635 0.632412,-0.210716 0.792473,-0.2282 2.123305,-0.231927 1.609406,-0.0045 1.712778,0.02309 2.383417,0.636288 0.193278,0.176725 0.517128,0.405699 0.719666,0.508833 0.549155,0.279632 1.526168,1.299348 1.839051,1.91943 0.965747,1.913951 0.570689,3.963656 -1.082603,5.616948 -1.178211,1.178211 -2.247337,1.598676 -4.198198,1.651064 -0.810216,0.02176 -1.346098,-0.0051 -1.693333,-0.08484 z" style="fill:#ff6187;fill-opacity:1;stroke-width:0.0846667"/>
  </g>
</svg>